<svg width="44" height="44" viewBox="0 0 44 44" fill="none" xmlns="http://www.w3.org/2000/svg">
<path d="M22 15.2324C15.1417 15.2324 9.56216 20.8119 9.56216 27.6697C9.56216 34.5281 15.1417 40.1076 22 40.1076C28.8584 40.1076 34.4378 34.5281 34.4378 27.6697C34.4378 20.8119 28.8584 15.2324 22 15.2324ZM22 39.0076C15.7483 39.0076 10.6622 33.9217 10.6622 27.6697C10.6622 21.4183 15.7483 16.3324 22 16.3324C28.2517 16.3324 33.3378 21.4183 33.3378 27.6697C33.3378 33.9217 28.2517 39.0076 22 39.0076Z" fill="black"/>
<path d="M28.1491 27.1197H22.55V21.5209C22.55 21.2169 22.3037 20.9709 22 20.9709C21.6963 20.9709 21.45 21.2169 21.45 21.5209V27.6697C21.45 27.9737 21.6963 28.2197 22 28.2197H28.1491C28.4528 28.2197 28.6991 27.9737 28.6991 27.6697C28.6991 27.3657 28.4528 27.1197 28.1491 27.1197Z" fill="black"/>
<path d="M43.45 4.27539H41.5357V3.08892C41.5357 1.38574 40.1186 0 38.3765 0C36.6346 0 35.2175 1.38574 35.2175 3.08892V4.27539H30.6179V3.08892C30.6179 1.38574 29.2008 0 27.4589 0C25.7171 0 24.2999 1.38574 24.2999 3.08892V4.27539H19.7001V3.08892C19.7001 1.38574 18.2829 0 16.5411 0C14.7992 0 13.3821 1.38574 13.3821 3.08892V4.27539H8.78254V3.08892C8.78254 1.38574 7.36538 0 5.62327 0C3.88142 0 2.46426 1.38574 2.46426 3.08892V4.27539H0.55C0.246265 4.27539 0 4.52139 0 4.82539V43.45C0 43.754 0.246265 44 0.55 44H43.45C43.7537 44 44 43.754 44 43.45V4.82539C44 4.52139 43.7537 4.27539 43.45 4.27539ZM36.3175 3.08892C36.3175 1.99214 37.2413 1.1 38.3767 1.1C39.5122 1.1 40.4357 1.99214 40.4357 3.08892V4.27539H36.3175V3.08892ZM25.3999 3.08892C25.3999 1.99214 26.3235 1.1 27.4589 1.1C28.5944 1.1 29.5179 1.99214 29.5179 3.08892V4.27539H25.3999V3.08892ZM14.4821 3.08892C14.4821 1.99214 15.4056 1.1 16.5411 1.1C17.6765 1.1 18.6001 1.99214 18.6001 3.08892V4.27539H14.4821V3.08892ZM3.56426 3.08892C3.56426 1.99214 4.48809 1.1 5.62354 1.1C6.75898 1.1 7.68254 1.99214 7.68254 3.08892V4.27539H3.56426V3.08892ZM7.68254 5.37539V5.80615C7.68254 6.90293 6.75898 7.79507 5.62354 7.79507C5.3198 7.79507 5.07354 8.04106 5.07354 8.34507C5.07354 8.64907 5.3198 8.89507 5.62354 8.89507C7.36538 8.89507 8.78254 7.50933 8.78254 5.80615V5.37539H18.6001V5.80615C18.6001 6.90293 17.6765 7.79507 16.5411 7.79507C16.2374 7.79507 15.9911 8.04106 15.9911 8.34507C15.9911 8.64907 16.2374 8.89507 16.5411 8.89507C18.2829 8.89507 19.7001 7.50933 19.7001 5.80615V5.37539H29.5179V5.80615C29.5179 6.90293 28.5944 7.79507 27.4589 7.79507C27.1552 7.79507 26.9089 8.04106 26.9089 8.34507C26.9089 8.64907 27.1552 8.89507 27.4589 8.89507C29.2008 8.89507 30.6179 7.50933 30.6179 5.80615V5.37539H40.4357V5.80615C40.4357 6.90293 39.5122 7.79507 38.3767 7.79507C38.073 7.79507 37.8267 8.04106 37.8267 8.34507C37.8267 8.64907 38.073 8.89507 38.3767 8.89507C40.1186 8.89507 41.5357 7.50933 41.5357 5.80615V5.37539H42.9V11.3566H1.1V5.37539H7.68254ZM1.1 42.9V12.4566H42.9V42.9H1.1Z" fill="black"/>
</svg>
