<svg width="44" height="44" viewBox="0 0 44 44" fill="none" xmlns="http://www.w3.org/2000/svg">
<path d="M4.94781 36.8553C5.01109 37.24 4.7524 37.6046 4.36937 37.6681C3.98633 37.7317 3.62328 37.4719 3.56 37.0872L3.40179 36.067L3.26856 35.0396C2.95325 32.333 2.90551 29.6058 3.12256 26.9031C3.33906 24.1943 3.82202 21.5061 4.56533 18.882C5.95036 13.9912 9.20726 10.1105 13.3346 7.80033C17.4553 5.49401 22.4464 4.75367 27.3092 6.13512L27.3353 6.14125C32.2049 7.53218 36.0691 10.8018 38.3689 14.9473C40.6655 19.0855 41.4027 24.0973 40.0271 28.9808L40.0143 29.0288C39.9405 29.2975 39.8917 29.5751 39.87 29.8555C39.8478 30.1477 39.8534 30.4431 39.8867 30.7336C39.9044 30.8813 39.9288 31.029 39.9599 31.1729C39.991 31.315 40.0288 31.4566 40.0726 31.5927C40.1925 31.9639 39.9905 32.3631 39.6208 32.4835C39.251 32.6039 38.8536 32.401 38.7337 32.0297C38.6737 31.8452 38.6238 31.6579 38.5832 31.4717C38.5427 31.2821 38.5105 31.0909 38.4883 30.8997C38.4439 30.5156 38.4367 30.1304 38.4655 29.7507C38.4944 29.3806 38.5594 29.0098 38.6593 28.6486L38.6676 28.6185C39.9455 24.0995 39.2655 19.4612 37.141 15.633C35.0177 11.8059 31.4482 8.78596 26.9501 7.50151C22.4486 6.21707 17.83 6.89999 14.0174 9.03348C10.207 11.1664 7.19883 14.751 5.91983 19.2689C5.20261 21.8016 4.7363 24.3978 4.52702 27.0135C4.31719 29.6281 4.36271 32.265 4.66747 34.879L4.79515 35.8675L4.94781 36.8553ZM1.41001 13.6902C1.41001 14.0809 1.09415 14.3982 0.705006 14.3982C0.315865 14.3982 0 14.0809 0 13.6902V6.25219C0 4.53514 0.700009 2.97251 1.82802 1.83858L1.83246 1.83412C2.96158 0.702431 4.51648 0 6.2257 0H13.6327C14.0218 0 14.3377 0.317209 14.3377 0.708006C14.3377 1.0988 14.0218 1.41601 13.6327 1.41601H6.2257C4.90007 1.41601 3.69601 1.959 2.82502 2.83425C1.9507 3.71173 1.41001 4.92092 1.41001 6.25219V13.6902ZM30.0776 1.41601C29.6885 1.41601 29.3726 1.0988 29.3726 0.708006C29.3726 0.317209 29.6885 0 30.0776 0H37.4846C39.1944 0 40.7504 0.702988 41.8795 1.8358L41.884 1.84026C43.0109 2.97418 43.7103 4.5357 43.7103 6.25219V13.6902C43.7103 14.0809 43.3945 14.3982 43.0053 14.3982C42.6162 14.3982 42.3003 14.0809 42.3003 13.6902V6.25219C42.3003 4.92092 41.7596 3.71173 40.8881 2.83704C40.0143 1.959 38.8103 1.41601 37.4846 1.41601H30.0776ZM42.3003 30.2051C42.3003 29.8143 42.6162 29.4971 43.0053 29.4971C43.3945 29.4971 43.7103 29.8143 43.7103 30.2051V37.6442C43.7103 39.3612 43.0103 40.9238 41.8823 42.0578L41.8779 42.0622C40.7488 43.1939 39.1939 43.8963 37.4846 43.8963H30.0776C29.6885 43.8963 29.3726 43.5791 29.3726 43.1883C29.3726 42.7975 29.6885 42.4803 30.0776 42.4803H37.4846C38.8103 42.4803 40.0143 41.9373 40.8853 41.0621C41.7596 40.1846 42.3003 38.9754 42.3003 37.6442V30.2051ZM13.6327 42.4803C14.0218 42.4803 14.3377 42.7975 14.3377 43.1883C14.3377 43.5791 14.0218 43.8963 13.6327 43.8963H6.2257C4.51592 43.8963 2.95991 43.1934 1.83079 42.0606L1.82635 42.0561C0.699454 40.9222 0 39.3607 0 37.6442V30.2051C0 29.8143 0.315865 29.4971 0.705006 29.4971C1.09415 29.4971 1.41001 29.8143 1.41001 30.2051V37.6442C1.41001 38.9754 1.9507 40.1846 2.82224 41.0593C3.69601 41.9373 4.90007 42.4803 6.2257 42.4803H13.6327ZM21.415 37.1263C21.5254 37.5003 21.3139 37.8945 20.9414 38.0054C20.569 38.1163 20.1765 37.9039 20.066 37.5299C19.854 36.8235 19.6719 36.1027 19.5209 35.3724C19.3693 34.6376 19.25 33.9012 19.1645 33.1698C18.9724 31.523 18.9419 29.8539 19.0751 28.1926C19.2072 26.5458 19.502 24.8995 19.9594 23.2817C20.1426 22.6339 20.5712 22.1221 21.1135 21.8177C21.6553 21.5145 22.3131 21.418 22.9543 21.6009C23.5994 21.7848 24.1084 22.2152 24.4115 22.7599C24.7129 23.3045 24.809 23.9646 24.6269 24.6085C24.2589 25.9102 24.0224 27.2365 23.9169 28.5683C23.8098 29.9157 23.8353 31.2688 23.9913 32.6056C24.0696 33.2791 24.1828 33.9536 24.3282 34.622C24.4737 35.2877 24.653 35.9477 24.8628 36.5955C24.9827 36.9668 24.7807 37.366 24.411 37.4864C24.0412 37.6068 23.6438 37.4039 23.5239 37.0326C23.2985 36.3369 23.1064 35.6311 22.9515 34.9208C22.7972 34.2123 22.6768 33.492 22.5924 32.7662C22.4258 31.3379 22.3981 29.8934 22.5124 28.4579C22.6251 27.0347 22.8783 25.6148 23.2724 24.2244C23.3496 23.9518 23.309 23.673 23.1836 23.4456C23.0576 23.2192 22.8427 23.0386 22.5718 22.9611C22.3004 22.8836 22.0234 22.9243 21.7963 23.0509C21.5709 23.1774 21.3911 23.3932 21.3139 23.6658C20.882 25.1888 20.6045 26.7442 20.4796 28.3029C20.3536 29.8762 20.3819 31.4544 20.5634 33.0092C20.645 33.7111 20.7571 34.4046 20.8976 35.0847C21.038 35.7643 21.2112 36.4472 21.415 37.1263ZM18.1725 37.439C18.2757 37.8142 18.0559 38.2033 17.6823 38.307C17.3087 38.4107 16.9212 38.1899 16.818 37.8147C16.6226 37.1028 16.4555 36.3954 16.3195 35.6969C16.1818 34.9872 16.0691 34.268 15.9848 33.5433C15.7677 31.6763 15.7349 29.797 15.8848 27.9339C16.0342 26.0658 16.3678 24.2104 16.8807 22.3997C17.3032 20.9074 18.2991 19.721 19.5586 19.0158C20.8121 18.3139 22.3309 18.0876 23.8098 18.504L23.8653 18.5196C25.3369 18.95 26.5049 19.9423 27.2016 21.1978C27.8999 22.4566 28.1264 23.9802 27.7117 25.4653L27.7062 25.4893C27.3975 26.5798 27.1971 27.6986 27.1077 28.8247C27.0178 29.9576 27.0383 31.0998 27.1699 32.2315C27.2437 32.8648 27.3514 33.4909 27.4919 34.1041C27.6329 34.7224 27.8083 35.3317 28.0159 35.9277C28.1436 36.2956 27.9499 36.6987 27.5835 36.8269C27.2171 36.9551 26.8157 36.7605 26.6881 36.3926C26.4632 35.7459 26.2728 35.0859 26.1207 34.4197C25.9675 33.7496 25.8498 33.0711 25.771 32.3921C25.6289 31.1684 25.6061 29.9353 25.7033 28.7144C25.7999 27.4957 26.0169 26.2843 26.3517 25.1024C26.6692 23.9824 26.4999 22.8323 25.9736 21.8835C25.4507 20.9414 24.5742 20.196 23.4711 19.8754L23.4528 19.8704C22.3331 19.551 21.1862 19.7205 20.2414 20.249C19.2983 20.7769 18.5522 21.6666 18.2352 22.7866C17.7484 24.5059 17.4314 26.2687 17.2893 28.0443C17.1466 29.8193 17.1772 31.6083 17.3837 33.3827C17.463 34.0657 17.5702 34.748 17.7017 35.4259C17.8361 36.115 17.9937 36.7879 18.1725 37.439ZM14.9006 37.5789C14.995 37.9575 14.7657 38.3416 14.3888 38.4363C14.0118 38.5311 13.6294 38.3009 13.535 37.9223C13.3757 37.2829 13.233 36.6167 13.1081 35.9299C12.9838 35.2503 12.8827 34.578 12.8061 33.9174C12.5641 31.8407 12.5274 29.7491 12.694 27.6769C12.8611 25.5986 13.2325 23.5348 13.8031 21.5206L13.8142 21.4843C14.4837 19.1585 16.0375 17.3127 18.0026 16.2128C19.9789 15.1067 22.3731 14.7516 24.7041 15.4167L24.7224 15.4223C27.0489 16.0912 28.8952 17.6555 29.9933 19.6352C31.0941 21.6187 31.4477 24.0231 30.7854 26.364L30.7832 26.3718C30.534 27.2565 30.3707 28.1675 30.2986 29.0851C30.2253 30.0072 30.2425 30.9371 30.3497 31.8575C30.4152 32.4216 30.5117 32.9702 30.6372 33.4987C30.7627 34.0261 30.9242 34.5596 31.1202 35.0948C31.2539 35.461 31.0663 35.868 30.7016 36.0024C30.3369 36.1367 29.9316 35.9483 29.7979 35.582C29.5925 35.0206 29.4165 34.4336 29.2716 33.8254C29.1278 33.2205 29.0201 32.6156 28.9507 32.018C28.8331 31.0062 28.8136 29.9854 28.8941 28.9747C28.9735 27.9679 29.1534 26.9644 29.4304 25.9844C29.9883 24.012 29.6907 21.9889 28.7653 20.3209C27.8399 18.6534 26.2845 17.3361 24.326 16.7775C22.362 16.2172 20.3475 16.516 18.6854 17.4459C17.0323 18.3714 15.725 19.9245 15.1648 21.8807L15.1576 21.9075C14.613 23.8308 14.2583 25.8015 14.0984 27.7873C13.9391 29.7719 13.9735 31.7733 14.205 33.7568C14.2811 34.413 14.3766 35.0541 14.4898 35.6757C14.6019 36.2978 14.7396 36.9328 14.9006 37.5789ZM11.6004 37.5393C11.6837 37.9196 11.445 38.2964 11.0664 38.38C10.6878 38.4637 10.3125 38.2239 10.2292 37.8437C10.0949 37.24 9.97833 36.6468 9.88062 36.0676C9.78015 35.4739 9.69521 34.8796 9.62693 34.2914C9.36047 32.0069 9.32051 29.7033 9.5037 27.4204C9.68689 25.1348 10.0955 22.8624 10.7233 20.6431C11.6265 17.4487 13.7532 14.9155 16.4472 13.4081C19.134 11.904 22.3892 11.4206 25.5601 12.3199L25.5861 12.326C28.7626 13.233 31.2845 15.3682 32.785 18.0725C34.2827 20.7708 34.764 24.0393 33.8697 27.2214L33.8558 27.2716C33.6671 27.9467 33.5444 28.6408 33.4894 29.3421C33.4334 30.0546 33.4461 30.7732 33.5288 31.4845C33.5816 31.9383 33.661 32.3826 33.7653 32.8119C33.8686 33.2367 34.0029 33.6659 34.165 34.0941C34.3032 34.4592 34.1206 34.8679 33.757 35.0067C33.3934 35.1455 32.9865 34.9621 32.8483 34.5969C32.6723 34.1331 32.5219 33.647 32.3997 33.1441C32.2782 32.6452 32.1877 32.1429 32.1299 31.6451C32.0367 30.8423 32.0217 30.0328 32.085 29.2317C32.1471 28.4429 32.287 27.6574 32.5024 26.8875L32.5102 26.8591C33.3068 24.041 32.8827 21.1471 31.557 18.7582C30.2325 16.3711 28.0059 14.4874 25.2009 13.6863C22.3914 12.884 19.5081 13.3105 17.13 14.6412C14.7529 15.9714 12.8755 18.2086 12.0778 21.0272C11.4755 23.1518 11.0841 25.3332 10.9082 27.5308C10.7322 29.7256 10.7699 31.9377 11.0258 34.1309C11.0925 34.7068 11.1741 35.2771 11.2684 35.8357C11.3678 36.4216 11.4788 36.9913 11.6004 37.5393ZM8.28187 37.2991C8.35626 37.6821 8.10701 38.0539 7.72564 38.1286C7.34427 38.2033 6.974 37.953 6.89962 37.57C6.81302 37.1229 6.72753 36.6379 6.64648 36.1139C6.56654 35.6021 6.49993 35.1188 6.44719 34.6655C6.15686 32.1691 6.11301 29.6537 6.31341 27.1612C6.51325 24.6654 6.95902 22.1862 7.64404 19.7639C8.78814 15.7205 11.4794 12.5127 14.8906 10.6039C18.2941 8.69843 22.417 8.08687 26.4338 9.22693L26.4893 9.24254C30.499 10.3971 33.6821 13.0942 35.5772 16.5099C37.4747 19.929 38.0847 24.07 36.9484 28.1039L36.9428 28.1279C36.8068 28.6073 36.7186 29.1018 36.6792 29.5997C36.6397 30.1003 36.6492 30.6076 36.7069 31.1076C36.7452 31.4293 36.8002 31.7398 36.8707 32.0331C36.9423 32.3313 37.0344 32.6301 37.1449 32.925C37.2815 33.2902 37.0977 33.6977 36.7341 33.8349C36.3705 33.972 35.9647 33.7875 35.8282 33.4223C35.7005 33.0823 35.5922 32.7283 35.5051 32.3653C35.4168 31.9974 35.3502 31.6317 35.3086 31.2738C35.2397 30.6784 35.2281 30.0796 35.2747 29.4893C35.3213 28.9 35.4263 28.313 35.5883 27.741C36.6275 24.0716 36.0746 20.3047 34.3493 17.1956C32.6279 14.0932 29.7368 11.6436 26.0952 10.5983L26.0763 10.5933C22.4192 9.55027 18.6682 10.105 15.5734 11.8371C12.4797 13.5686 10.0372 16.4804 8.99854 20.1481C8.33905 22.4761 7.91049 24.8638 7.71787 27.2716C7.52468 29.6766 7.56632 32.1011 7.8461 34.505C7.90383 35.0006 7.96712 35.4672 8.03429 35.8987C8.1009 36.3302 8.18472 36.799 8.28187 37.2991Z" fill="black"/>
</svg>
