<svg width="15" height="15" viewBox="0 0 15 15" fill="none" xmlns="http://www.w3.org/2000/svg">
<g clip-path="url(#clip0_1_485)">
<path d="M7.5 0C4.69298 0 2.40927 2.28368 2.40927 5.0907C2.40927 6.2187 3.07337 7.93418 4.49925 10.4894C5.47224 12.2329 6.44074 13.7055 6.4816 13.7676L7.18162 14.8286C7.2522 14.9356 7.37178 15 7.5 15C7.62822 15 7.7478 14.9356 7.81838 14.8286L8.51836 13.7676C8.55883 13.7063 9.52028 12.2464 10.5007 10.4894C11.9266 7.9343 12.5907 6.21882 12.5907 5.0907C12.5907 2.28368 10.307 0 7.5 0ZM9.83463 10.1176C8.86781 11.85 7.92155 13.2871 7.88166 13.3474L7.5 13.9259L7.11845 13.3476C7.07836 13.2867 6.12484 11.8368 5.16536 10.1176C3.84275 7.74744 3.17211 6.05612 3.17211 5.0907C3.17211 2.70431 5.11358 0.762843 7.5 0.762843C9.88642 0.762843 11.8279 2.70431 11.8279 5.0907C11.8279 6.05624 11.1573 7.7475 9.83463 10.1176Z" fill="black"/>
<path d="M7.49999 2.23639C5.94364 2.23639 4.67747 3.50259 4.67747 5.05891C4.67747 6.61523 5.94364 7.88143 7.49999 7.88143C9.05635 7.88143 10.3225 6.61523 10.3225 5.05891C10.3225 3.50259 9.05635 2.23639 7.49999 2.23639ZM7.49999 7.11859C6.36427 7.11859 5.44032 6.19463 5.44032 5.05891C5.44032 3.92319 6.36427 2.99923 7.49999 2.99923C8.63575 2.99923 9.55967 3.92319 9.55967 5.05891C9.55967 6.19463 8.63575 7.11859 7.49999 7.11859Z" fill="black"/>
</g>
<defs>
<clipPath id="clip0_1_485">
<rect width="15" height="15" fill="white"/>
</clipPath>
</defs>
</svg>
