<svg width="59" height="44" viewBox="0 0 59 44" fill="none" xmlns="http://www.w3.org/2000/svg">
<path d="M47.3272 20.8937C40.8909 20.8937 35.6544 26.0765 35.6544 32.4468C35.6544 38.8172 40.8909 44 47.3272 44C53.7635 44 59 38.8172 59 32.4468C59 26.0765 53.7635 20.8937 47.3272 20.8937ZM47.3272 42.5996C41.6719 42.5996 37.0693 38.0449 37.0693 32.4468C37.0693 26.8488 41.6719 22.2941 47.3272 22.2941C52.9839 22.2941 57.5851 26.8488 57.5851 32.4468C57.5851 38.0449 52.9839 42.5996 47.3272 42.5996ZM48.0346 32.0989V25.4449C48.0346 25.0577 47.7184 24.7447 47.3272 24.7447C46.936 24.7447 46.6198 25.0577 46.6198 25.4449V32.4468C46.6198 32.666 46.723 32.8726 46.8999 33.0049L52.5043 37.2061C52.6316 37.302 52.7823 37.3482 52.9301 37.3482C53.1445 37.3482 53.356 37.2523 53.4954 37.0709C53.7317 36.7628 53.6694 36.3238 53.3589 36.0906L48.0346 32.0989ZM31.1862 31.7467H27.6935V24.576C27.6935 23.5362 27.4155 22.7989 25.9822 21.9055C25.8408 21.806 22.4592 19.4632 17.1993 19.4632C11.7641 19.4632 8.53812 21.8159 8.41786 21.9055C7.1862 22.7737 6.70585 23.5229 6.70585 24.576V31.7467H2.12233C1.73253 31.7467 1.41489 31.433 1.41489 31.0465V2.10057C1.41489 1.71477 1.73253 1.40038 2.12233 1.40038H45.9123C46.3035 1.40038 46.6198 1.71477 46.6198 2.10057V17.0426C46.6198 17.4292 46.936 17.7428 47.3272 17.7428C47.7184 17.7428 48.0346 17.4292 48.0346 17.0426V2.10057C48.0346 0.942457 47.0824 0 45.9123 0H2.12233C0.952218 0 0 0.942457 0 2.10057V31.0465C0 32.2046 0.952218 33.147 2.12233 33.147H31.1862C31.5774 33.147 31.8936 32.8341 31.8936 32.4468C31.8936 32.0596 31.5774 31.7467 31.1862 31.7467ZM26.2787 31.7467H8.12073V24.576C8.12073 24.1552 8.2028 23.7757 9.25335 23.0356C9.28306 23.0139 12.2317 20.8629 17.1993 20.8629C21.9852 20.8629 25.1305 23.0244 25.1942 23.0671C26.2787 23.7442 26.2787 24.0572 26.2787 24.5753V31.7467ZM11.2299 11.745C11.2299 15.0023 13.9076 17.6532 17.1993 17.6532C20.4911 17.6532 23.1687 15.003 23.1687 11.745C23.1687 8.48702 20.4911 5.83679 17.1993 5.83679C13.9076 5.83679 11.2299 8.48772 11.2299 11.745ZM21.7532 11.745C21.7532 14.2307 19.7101 16.2528 17.1986 16.2528C14.6872 16.2528 12.6441 14.2307 12.6441 11.745C12.6441 9.25933 14.6872 7.23717 17.1986 7.23717C19.7101 7.23717 21.7532 9.26003 21.7532 11.745ZM41.2673 7.76512H29.9482C29.557 7.76512 29.2407 8.0781 29.2407 8.46531C29.2407 8.85182 29.557 9.1655 29.9482 9.1655H41.2673C41.6585 9.1655 41.9747 8.85182 41.9747 8.46531C41.9747 8.0781 41.6585 7.76512 41.2673 7.76512ZM41.9747 12.929C41.9747 12.5418 41.6585 12.2288 41.2673 12.2288H29.9482C29.557 12.2288 29.2407 12.5418 29.2407 12.929C29.2407 13.3155 29.557 13.6292 29.9482 13.6292H41.2673C41.6585 13.6292 41.9747 13.3155 41.9747 12.929ZM29.9482 16.6926C29.557 16.6926 29.2407 17.0055 29.2407 17.3927C29.2407 17.7792 29.557 18.0929 29.9482 18.0929H36.3618C36.7531 18.0929 37.0693 17.7792 37.0693 17.3927C37.0693 17.0055 36.7531 16.6926 36.3618 16.6926H29.9482Z" fill="white"/>
</svg>
