<svg width="15" height="15" viewBox="0 0 15 15" fill="none" xmlns="http://www.w3.org/2000/svg">
<path d="M10.3531 9.16763L7.76641 7.35882V4.25001C7.76641 4.10349 7.64654 3.98361 7.50002 3.98361C7.3535 3.98361 7.23363 4.10349 7.23363 4.25001V7.50001C7.23363 7.58792 7.27625 7.66783 7.34818 7.71845L10.0494 9.60718C10.0947 9.63915 10.148 9.65513 10.2012 9.65513C10.2838 9.65513 10.3664 9.61517 10.4197 9.53792C10.5023 9.41804 10.473 9.25288 10.3531 9.16763Z" fill="black" stroke="black" stroke-width="0.2"/>
<path d="M12.0926 2.90738C10.8619 1.67664 9.23156 1 7.5 1C5.76844 1 4.13811 1.67664 2.90738 2.90738C1.67664 4.13812 1 5.76844 1 7.5C1 9.23156 1.67664 10.8619 2.90738 12.0926C4.13811 13.3234 5.76844 14 7.5 14C9.23156 14 10.8619 13.3234 12.0926 12.0926C13.3234 10.8619 14 9.23156 14 7.5C14 5.76844 13.3234 4.13812 12.0926 2.90738ZM7.76639 13.4619V12.375C7.76639 12.2285 7.64652 12.1086 7.5 12.1086C7.35348 12.1086 7.23361 12.2285 7.23361 12.375V13.4619C4.1541 13.326 1.67398 10.8459 1.53811 7.76639H2.625C2.77152 7.76639 2.89139 7.64652 2.89139 7.5C2.89139 7.35348 2.77152 7.23361 2.625 7.23361H1.53811C1.67398 4.1541 4.1541 1.67398 7.23361 1.53812V2.625C7.23361 2.77152 7.35348 2.89139 7.5 2.89139C7.64652 2.89139 7.76639 2.77152 7.76639 2.625V1.53812C10.8459 1.67398 13.326 4.1541 13.4619 7.23361H12.375C12.2285 7.23361 12.1086 7.35348 12.1086 7.5C12.1086 7.64652 12.2285 7.76639 12.375 7.76639H13.4619C13.326 10.8459 10.8459 13.326 7.76639 13.4619Z" fill="black" stroke="black" stroke-width="0.2"/>
</svg>
