<svg width="52" height="40" viewBox="0 0 52 40" fill="none" xmlns="http://www.w3.org/2000/svg">
<path d="M43.3464 16.7811C44.4029 16.427 45.3751 15.8588 46.2021 15.1119C47.029 14.365 47.693 13.4555 48.1525 12.4403C48.6119 11.4251 48.8569 10.326 48.8723 9.21181C48.8876 8.09759 48.6729 6.99219 48.2415 5.96474C47.8101 4.93729 47.1714 4.00989 46.3653 3.24053C45.5592 2.47118 44.603 1.87641 43.5566 1.49344C42.5101 1.11046 41.3959 0.947508 40.2836 1.01477C39.1713 1.08204 38.0849 1.37807 37.0922 1.88436H3.47553C2.11026 1.88436 1 2.92101 1 4.1961V29.2967C1 30.5717 2.11026 31.6084 3.47553 31.6084H15.7257V35.9385C15.7257 36.0422 15.6925 38.5457 12.7878 38.5457C12.7029 38.5463 12.6208 38.5764 12.5556 38.6307H7.45318C7.35586 38.6307 7.26251 38.6694 7.19369 38.7382C7.12487 38.807 7.08621 38.9004 7.08621 38.9977C7.08621 39.095 7.12487 39.1884 7.19369 39.2572C7.26251 39.326 7.35586 39.3647 7.45318 39.3647H24.5653C24.6114 39.3647 24.6572 39.3559 24.7 39.3387C24.8296 39.3554 24.9602 39.3637 25.0909 39.3636H36.4588C36.5071 39.3638 36.5548 39.3544 36.5994 39.336C36.644 39.3176 36.6845 39.2905 36.7186 39.2564C36.7527 39.2223 36.7797 39.1818 36.7981 39.1372C36.8165 39.0927 36.8259 39.0449 36.8258 38.9966V25.9866C36.8258 25.8893 36.7871 25.7959 36.7183 25.7271C36.6495 25.6583 36.5562 25.6196 36.4588 25.6196C36.3615 25.6196 36.2682 25.6583 36.1993 25.7271C36.1305 25.7959 36.0918 25.8893 36.0918 25.9866V38.6338H25.0909C23.8925 38.6338 22.8693 37.7516 22.7615 36.6258C22.731 36.3161 22.7656 36.0034 22.8632 35.7079C22.9608 35.4124 23.1191 35.1405 23.3281 34.9099C23.5371 34.6793 23.792 34.4949 24.0765 34.3687C24.361 34.2426 24.6687 34.1773 24.9799 34.1772H31.2683C31.3656 34.1772 31.459 34.1386 31.5278 34.0697C31.5966 34.0009 31.6353 33.9076 31.6353 33.8103V23.9237C31.6353 20.2736 35.814 17.3036 40.9507 17.3036C46.0873 17.3036 50.266 20.2736 50.266 23.9237V39.3439C50.266 39.4413 50.3047 39.5346 50.3735 39.6034C50.4424 39.6722 50.5357 39.7109 50.633 39.7109C50.7304 39.7109 50.8237 39.6722 50.8925 39.6034C50.9613 39.5346 51 39.4413 51 39.3439V23.9237C51 20.4726 47.7345 17.57 43.3464 16.7811ZM48.1378 9.10052C48.138 10.5581 47.706 11.9831 46.8963 13.1951C46.0866 14.4072 44.9357 15.3519 43.5891 15.9099C42.2425 16.4678 40.7607 16.6139 39.3311 16.3297C37.9015 16.0454 36.5882 15.3436 35.5575 14.313C34.5267 13.2824 33.8247 11.9693 33.5403 10.5397C33.2559 9.11008 33.4017 7.62825 33.9595 6.28158C34.5173 4.9349 35.4618 3.78387 36.6738 2.97404C37.8857 2.16421 39.3106 1.73197 40.7682 1.73197C42.7219 1.73416 44.5949 2.51116 45.9765 3.89253C47.3581 5.27389 48.1353 7.14684 48.1378 9.10052ZM1.73395 29.2967V4.1961C1.73395 3.32634 2.51559 2.61831 3.47553 2.61831H35.9125C34.8926 3.38403 34.0664 4.37817 33.5002 5.52095H4.91338C4.81605 5.52095 4.72271 5.55961 4.65389 5.62843C4.58506 5.69725 4.5464 5.79059 4.5464 5.88792V26.1006C4.54585 26.1491 4.55494 26.1973 4.57315 26.2422C4.59136 26.2871 4.61832 26.328 4.65247 26.3625C4.68661 26.3969 4.72726 26.4242 4.77205 26.4428C4.81684 26.4614 4.86488 26.4709 4.91338 26.4707H30.9013V30.8776H3.47553C2.51559 30.8744 1.73395 30.1664 1.73395 29.2967ZM24.9799 33.4433C24.5672 33.443 24.159 33.5287 23.7813 33.6951C23.4036 33.8614 23.0647 34.1047 22.7864 34.4094C22.5066 34.7148 22.2946 35.0758 22.1642 35.4689C22.0337 35.8619 21.9879 36.2781 22.0296 36.6901C22.1086 37.4489 22.4837 38.1458 23.0735 38.6297H15.0913C16.4389 37.6645 16.4586 35.9613 16.4586 35.9344V31.6084H30.9013V33.4391L24.9799 33.4433ZM30.9013 23.9278V25.7378H5.28035V6.25594H33.1809C32.794 7.28575 32.6208 8.38358 32.672 9.4825C32.7232 10.5814 32.9977 11.6584 33.4787 12.6478C33.9597 13.6372 34.6372 14.5182 35.4698 15.2372C36.3024 15.9562 37.2728 16.4981 38.3217 16.8298C34.0507 17.6737 30.9013 20.5348 30.9013 23.9237V23.9278Z" fill="black" stroke="black" stroke-width="0.5"/>
<path d="M17.5585 8.96265H9.43111C9.33702 8.96765 9.24843 9.00854 9.1836 9.07691C9.11877 9.14528 9.08263 9.23592 9.08263 9.33014C9.08263 9.42436 9.11877 9.515 9.1836 9.58337C9.24843 9.65174 9.33702 9.69264 9.43111 9.69764H17.5585C17.6526 9.69264 17.7412 9.65174 17.806 9.58337C17.8708 9.515 17.907 9.42436 17.907 9.33014C17.907 9.23592 17.8708 9.14528 17.806 9.07691C17.7412 9.00854 17.6526 8.96765 17.5585 8.96265Z" fill="black" stroke="black" stroke-width="0.5"/>
<path d="M12.7878 12.5702H9.43111C9.33702 12.5752 9.24843 12.6161 9.1836 12.6845C9.11877 12.7528 9.08263 12.8435 9.08263 12.9377C9.08263 13.0319 9.11877 13.1225 9.1836 13.1909C9.24843 13.2593 9.33702 13.3002 9.43111 13.3052H12.7878C12.8819 13.3002 12.9705 13.2593 13.0353 13.1909C13.1002 13.1225 13.1363 13.0319 13.1363 12.9377C13.1363 12.8435 13.1002 12.7528 13.0353 12.6845C12.9705 12.6161 12.8819 12.5752 12.7878 12.5702Z" fill="black" stroke="black" stroke-width="0.5"/>
</svg>
